<?xml version="1.0" encoding="UTF-8"?><svg id="_文字" xmlns="http://www.w3.org/2000/svg" viewBox="0 0 75 61.94"><defs><style>.cls-1{fill:none;stroke:#fff;stroke-linecap:square;stroke-miterlimit:10;stroke-width:3px;}.cls-2{fill:#fff;stroke-width:0px;}</style></defs><line class="cls-1" x1="0" y1="1.5" x2="75" y2="40.95"/><line class="cls-1" x1="75.19" y1="1.5" x2=".19" y2="40.95"/><path class="cls-2" d="M1.83,61.54c.13-1.01.19-1.81.19-3.13v-8.34c0-1.46-.05-2.18-.19-3.13h2.58v1.33c0,.08-.03.48-.03.56q-.03.24-.03.4c.96-1.67,2.66-2.58,4.78-2.58,1.51,0,2.66.43,3.45,1.3.4.4.56.72.82,1.46,1.33-1.97,2.76-2.76,5.02-2.76,1.75,0,3.08.53,3.91,1.59.72.88,1.01,1.97,1.01,3.61v6.59c0,1.38.05,2.15.19,3.11h-2.79c.16-1.06.19-1.67.19-3.13v-6.19c0-1.62-.29-2.47-1.09-3.03-.45-.32-1.06-.48-1.81-.48-1.25,0-2.42.66-3.21,1.83-.48.69-.93,1.97-.93,2.63v5.26c0,1.38.05,2.15.19,3.11h-2.79c.13-.96.19-1.75.19-3.13v-6.19c0-2.31-.98-3.51-2.87-3.51-1.2,0-2.44.74-3.27,1.94-.45.66-.93,1.99-.93,2.52v5.23c0,1.3.05,2.05.19,3.13H1.83Z"/><path class="cls-2" d="M28.9,54.68c.11,1.73.37,2.6,1.06,3.53.82,1.12,2.07,1.7,3.61,1.7,1.41,0,2.58-.5,3.4-1.46.4-.43.58-.77.85-1.54l2.23.82c-.5,1.12-.85,1.65-1.49,2.26-1.28,1.28-2.98,1.94-5.02,1.94-4.3,0-7.04-2.98-7.04-7.7s2.71-7.68,6.85-7.68c3.59,0,6.11,2.26,6.64,5.98.05.27.11.82.19,2.15h-11.29ZM37.69,52.75c-.16-1.38-.56-2.28-1.33-3.06-.8-.77-1.81-1.14-3.06-1.14-1.57,0-2.87.77-3.67,2.18-.37.64-.5,1.06-.66,2.02h8.71Z"/><path class="cls-2" d="M43.16,61.54c.16-1.06.21-1.78.21-3.13v-8.34c0-1.3-.05-2.07-.21-3.13h2.6v1.57c0,.35,0,.48-.05,1.14,1.33-2.05,3-2.98,5.37-2.98,1.94,0,3.45.69,4.33,1.97.53.82.8,1.86.8,3.27v6.54c0,1.38.05,2.2.19,3.11h-2.79c.13-1.12.19-1.89.19-3.13v-6.14c0-2.34-1.04-3.53-3.06-3.53-1.38,0-2.52.58-3.61,1.89-.72.85-1.06,1.49-1.35,2.58v5.21c0,1.17.05,2.07.19,3.13h-2.79Z"/><path class="cls-2" d="M73.17,46.93c-.16,1.06-.21,1.78-.21,3.13v8.34c0,1.3.05,2.07.21,3.13h-2.6v-1.57c0-.35,0-.48.05-1.14-1.33,2.02-3.03,2.95-5.37,2.95-1.94,0-3.45-.69-4.33-1.97-.53-.8-.8-1.83-.8-3.24v-6.54c0-1.38-.05-2.2-.19-3.11h2.79c-.13,1.12-.19,1.89-.19,3.13v6.14c0,2.34,1.04,3.53,3.06,3.53,1.38,0,2.52-.58,3.61-1.89.72-.85,1.06-1.49,1.35-2.58v-5.21c0-1.17-.05-2.07-.19-3.13h2.79Z"/></svg>