<?xml version="1.0" encoding="UTF-8"?><svg id="_2" xmlns="http://www.w3.org/2000/svg" viewBox="0 0 512 512"><defs><style>.cls-1{fill:#fff;stroke-width:0px;}</style></defs><path class="cls-1" d="M509.45,113.13c-2.55-13.22-7.05-26.14-13.45-38.36-6.39-12.2-14.75-23.64-24.94-33.83-13.56-13.58-29.41-23.88-46.27-30.72C399.49,0,371.96-2.56,345.52,2.57c-13.22,2.56-26.16,7-38.36,13.42-12.17,6.42-23.64,14.75-33.83,24.95l-66.25,66.25c-13.38,13.34-13.38,35.05,0,48.39s35.03,13.34,48.39,0l66.25-66.28c7.03-7,15.02-12.17,23.59-15.67,12.84-5.2,27.03-6.53,40.55-3.91,6.75,1.31,13.33,3.59,19.53,6.84,6.19,3.25,12,7.47,17.28,12.73,7.03,7.08,12.19,15.05,15.69,23.61,5.2,12.84,6.53,27.05,3.91,40.55-1.31,6.77-3.59,13.34-6.83,19.52-3.28,6.22-7.48,12.03-12.77,17.31l-66.25,66.23c-13.36,13.36-13.36,35.05,0,48.39s35.02,13.34,48.38,0l66.25-66.26c13.59-13.56,23.88-29.41,30.7-46.27,10.25-25.3,12.8-52.83,7.69-79.25Z"/><path class="cls-1" d="M256.54,356.43l-66.27,66.27c-7.05,7.02-15.03,12.19-23.59,15.67-12.84,5.22-27.05,6.55-40.55,3.94-6.77-1.33-13.33-3.62-19.53-6.86-6.19-3.27-12-7.5-17.28-12.75-7.03-7.06-12.2-15.03-15.69-23.61-5.2-12.83-6.53-27.03-3.92-40.56,1.31-6.75,3.61-13.33,6.84-19.52,3.28-6.19,7.48-12,12.77-17.3l66.27-66.25c13.34-13.34,13.34-35.02,0-48.36-13.38-13.36-35.03-13.36-48.39,0l-66.25,66.23c-13.59,13.59-23.88,29.41-30.72,46.3C0,344.9-2.55,372.47,2.56,398.85c2.55,13.22,7.03,26.16,13.45,38.36,6.41,12.2,14.75,23.67,24.94,33.84,13.59,13.58,29.41,23.89,46.27,30.69,25.28,10.27,52.84,12.81,79.25,7.7,13.23-2.56,26.16-7.05,38.34-13.45,12.2-6.39,23.67-14.75,33.86-24.94l66.25-66.27c13.34-13.34,13.34-35.02,0-48.36-13.38-13.36-35.03-13.36-48.38,0Z"/><path class="cls-1" d="M342.43,169.57c-13.34-13.34-35.02-13.34-48.38,0l-124.52,124.5c-13.34,13.36-13.34,35.02,0,48.36,13.38,13.38,35.05,13.38,48.39,0l124.5-124.5c13.38-13.36,13.38-35,0-48.36Z"/></svg>