<?xml version="1.0" encoding="UTF-8"?><svg xmlns="http://www.w3.org/2000/svg" viewBox="0 0 56.69 56.69"><defs><style>.cls-1{fill:#ea9121;}.cls-1,.cls-2{stroke-width:0px;}.cls-2{fill:#fff;}</style></defs><g id="_レイヤー_2"><rect class="cls-1" x="0" width="56.69" height="56.69"/></g><g id="_レイヤー_1"><path class="cls-2" d="M23.87,14.62v17.2c0,1.14.07,3.31.21,6.16-.78-1.42-1.85-3.17-2.46-4.06l-10.61-15.92c-1.07-1.64-1.6-2.6-1.89-3.38h-3.99v27.46h3.28v-17.13c0-1.5-.07-3.99-.21-6.16.61,1.18,1.71,3.06,2.1,3.67l10.76,16.24c1.03,1.57,1.46,2.24,1.99,3.38h4.1V14.62h-3.28Z"/><polygon class="cls-2" points="48.24 14.62 48.24 18.78 48.24 23.53 48.24 26.12 32.6 26.12 32.6 23.53 32.6 18.71 32.6 14.62 29.29 14.62 29.29 18.78 29.29 37.91 29.29 42.08 32.6 42.08 32.6 37.91 32.6 31.44 32.6 29.15 48.24 29.15 48.24 31.44 48.24 37.91 48.24 42.08 51.55 42.08 51.55 37.91 51.55 18.71 51.55 14.62 48.24 14.62"/></g></svg>